<svg version="1.1" xmlns="http://www.w3.org/2000/svg" viewBox="0 0 923.9215460214391 404.28714775582785" width="2771.7646380643173" height="1212.8614432674835" filter="invert(93%) hue-rotate(180deg)">
  <!-- svg-source:excalidraw -->
  
  <defs>
    <style class="style-fonts">
      @font-face {
        font-family: "Virgil";
        src: url("https://excalidraw.com/Virgil.woff2");
      }
      @font-face {
        font-family: "Cascadia";
        src: url("https://excalidraw.com/Cascadia.woff2");
      }
    </style>
  </defs>
  <rect x="0" y="0" width="923.9215460214391" height="404.28714775582785" fill="#ffffff"></rect><g stroke-linecap="round"><g transform="translate(10.346804184429402 393.43415276808673) rotate(0 112.58712453341104 -174.19275692366068)"><path d="M0.73 0.85 C38.13 -57.38, 188.19 -290.97, 225.52 -349.24 M-0.35 0.26 C36.84 -57.81, 187.48 -289.9, 224.85 -347.83" stroke="#000000" stroke-width="4" fill="none"></path></g></g><mask></mask><g stroke-linecap="round"><g transform="translate(234.3468041844294 44.43415276808662) rotate(0 100.9818568412029 168.7315235872195)"><path d="M0.14 -0.34 C34.2 55.93, 169.47 281.59, 203.21 338.01 M-1.24 -1.57 C32.78 54.79, 168.56 282.25, 202.37 339.03" stroke="#000000" stroke-width="4" fill="none"></path></g></g><mask></mask><g stroke-linecap="round"><g transform="translate(321.3468041844294 186.43415276808673) rotate(0 57.44756139090282 -87.69125451706356)"><path d="M0.83 -0.3 C20.09 -29.65, 96.22 -146.12, 115.09 -175.08 M-0.19 -1.51 C18.96 -30.74, 94.75 -144.52, 114.18 -173.58" stroke="#000000" stroke-width="4" fill="none"></path></g></g><mask></mask><g stroke-linecap="round"><g transform="translate(437.3468041844294 11.43415276808662) rotate(0 123.43276652242048 184.552749317186)"><path d="M-1.05 -0.25 C39.81 61.35, 204.49 308.78, 245.82 370.54 M0.61 -1.43 C41.76 59.74, 207 306.5, 247.91 368.7" stroke="#000000" stroke-width="4" fill="none"></path></g></g><mask></mask><g stroke-linecap="round"><g transform="translate(534.3468041844294 150.43415276808673) rotate(0 45.98880855928178 -64.83203619457788)"><path d="M-0.28 0.67 C14.84 -21.14, 74.88 -108.71, 90.05 -130.34 M1.77 -0.02 C17.32 -21.71, 77.59 -107.15, 92.26 -128.98" stroke="#000000" stroke-width="4" fill="none"></path></g></g><mask></mask><g stroke-linecap="round"><g transform="translate(624.3468041844294 18.43415276808662) rotate(0 144.34642242453992 181.79011447709058)"><path d="M-0.88 1.15 C47.42 61.57, 241.11 301.56, 289.57 361.56 M0.86 0.71 C48.98 61.37, 240.36 302.64, 288.4 362.87" stroke="#000000" stroke-width="4" fill="none"></path></g></g><mask></mask><g stroke-linecap="round"><g transform="translate(187.3468041844294 116.43415276808662) rotate(0 47.74833421446374 15.983679727953586)"><path d="M-1 -0.54 C1.83 3.77, 8.5 22.67, 16.09 26 C23.67 29.34, 36.02 18.59, 44.5 19.46 C52.97 20.33, 58.26 32.89, 66.93 31.21 C75.59 29.54, 91.51 12.9, 96.5 9.42 M0.67 1.79 C3.44 6.3, 8.05 24.95, 15.18 27.54 C22.32 30.14, 34.81 16.55, 43.47 17.36 C52.13 18.17, 58.5 33.74, 67.14 32.43 C75.77 31.12, 90.64 13.33, 95.29 9.51" stroke="#000000" stroke-width="4" fill="none"></path></g></g><mask></mask><g stroke-linecap="round"><g transform="translate(392.3468041844294 80.43415276808662) rotate(0 50.22872967159378 10.563844032706243)"><path d="M-0.67 -0.21 C2.24 2.93, 10.59 18.8, 17.64 19.91 C24.7 21.02, 35.14 6.48, 41.69 6.45 C48.23 6.42, 52.23 19.42, 56.94 19.72 C61.65 20.03, 64.4 7.94, 69.95 8.28 C75.51 8.62, 85.21 19.71, 90.27 21.77 C95.33 23.83, 98.57 20.84, 100.32 20.65 M1.18 -1.37 C3.97 1.96, 10.44 16.79, 17.03 18.27 C23.63 19.74, 33.98 7.59, 40.75 7.47 C47.53 7.35, 53.06 17.41, 57.67 17.54 C62.29 17.68, 62.76 7.78, 68.45 8.29 C74.14 8.8, 86.37 18.72, 91.82 20.61 C97.26 22.51, 99.74 19.64, 101.12 19.65" stroke="#000000" stroke-width="4" fill="none"></path></g></g><mask></mask><g stroke-linecap="round"><g transform="translate(578.3468041844294 92.43415276808662) rotate(0 47.063329835888 -7.22082057004809)"><path d="M0.18 -0.66 C5.53 -3.38, 24.94 -16.32, 31.99 -16.11 C39.05 -15.89, 37.8 -0.23, 42.5 0.64 C47.2 1.51, 54.11 -11.2, 60.19 -10.89 C66.27 -10.57, 73.12 1.9, 78.97 2.52 C84.83 3.14, 92.53 -5.9, 95.31 -7.18 M-1.19 1.61 C4.02 -1.47, 23.93 -17.79, 31.04 -17.76 C38.15 -17.74, 36.55 0.95, 41.47 1.77 C46.38 2.59, 54 -13.09, 60.53 -12.86 C67.06 -12.62, 75.17 1.9, 80.62 3.18 C86.07 4.46, 90.55 -3.63, 93.23 -5.17" stroke="#000000" stroke-width="4" fill="none"></path></g></g><mask></mask></svg>